<svg width="41" height="41" viewBox="0 0 41 41" fill="none" xmlns="http://www.w3.org/2000/svg">
<path d="M12.8125 7.6875H7.6875C6.27012 7.6875 5.125 8.83262 5.125 10.25V30.75C5.125 32.1674 6.27012 33.3125 7.6875 33.3125H12.8125C14.2299 33.3125 15.375 34.4576 15.375 35.875C15.375 37.2924 14.2299 38.4375 12.8125 38.4375H7.6875C3.44336 38.4375 0 34.9941 0 30.75V10.25C0 6.00586 3.44336 2.5625 7.6875 2.5625H12.8125C14.2299 2.5625 15.375 3.70762 15.375 5.125C15.375 6.54238 14.2299 7.6875 12.8125 7.6875ZM13.5652 22.3098C12.5643 21.3088 12.5643 19.6832 13.5652 18.6822L23.8152 8.43223C24.8162 7.43125 26.4418 7.43125 27.4428 8.43223C28.4437 9.4332 28.4437 11.0588 27.4428 12.0598L21.565 17.9375H38.4375C39.8549 17.9375 41 19.0826 41 20.5C41 21.9174 39.8549 23.0625 38.4375 23.0625H21.565L27.4428 28.9402C28.4437 29.9412 28.4437 31.5668 27.4428 32.5678C26.4418 33.5688 24.8162 33.5688 23.8152 32.5678L13.5652 22.3178V22.3098Z" fill="#3d006b"/>
</svg>
